<svg width="48" height="48" viewBox="0 0 48 48" fill="none" xmlns="http://www.w3.org/2000/svg">
<path d="M17.2763 23.5956C16.8951 23.9953 16.9102 24.6283 17.3099 25.0094L23.8236 31.2201C24.2233 31.6012 24.8563 31.5861 25.2374 31.1864C25.6185 30.7867 25.6034 30.1537 25.2037 29.7726L19.4138 24.252L24.9344 18.4621C25.3155 18.0624 25.3005 17.4294 24.9008 17.0483C24.501 16.6672 23.8681 16.6822 23.4869 17.0819L17.2763 23.5956ZM30.0204 24.9997C30.5725 24.9866 31.0095 24.5283 30.9963 23.9762C30.9832 23.4241 30.5249 22.9871 29.9728 23.0003L30.0204 24.9997ZM18.0238 25.2854L30.0204 24.9997L29.9728 23.0003L17.9762 23.2859L18.0238 25.2854Z" fill="#15E5B3"/>
</svg>
